# xmcd CD database file
#
# Track frame offsets:
#	150
#	937
#	17710
#	33243
#	34057
#	46282
#	47620
#	56159
#	57347
#	73171
#	91726
#	93918
#	107317
#	120977
#	121954
#	133377
#	142518
#	143632
#
# Disc length: 2224 seconds
#
# Revision: 0
# Processed by: cddbd v1.5.2PL0 Copyright (c) Steve Scherf et al.
# Submitted via: CDex 1.51
#
DISCID=e108ae12
DTITLE=David Allan Coe - That's All I'll Ever Be
DYEAR=2005
DGENRE=Country
TTITLE0=Intro Born
TTITLE1=Desperate Man
TTITLE2=Will You Remember Me
TTITLE3=Intro Blues
TTITLE4=Death Row
TTITLE5=Intro First Rap
TTITLE6=Requiem For A Harlequin The Beginning
TTITLE7=Intro Emotions
TTITLE8=The Penny
TTITLE9=Show Me Your Feelings
TTITLE10=Intro Father
TTITLE11=Single Father
TTITLE12=The Ghost of Hank Williams
TTITLE13=Intro Duet
TTITLE14=Ain't That The Way
TTITLE15=I Love You And I Hate You
TTITLE16=Intro Just Listen
TTITLE17=The Music
EXTD=YEAR: 2005
EXTT0=
EXTT1=
EXTT2=
EXTT3=
EXTT4=
EXTT5=
EXTT6=
EXTT7=
EXTT8=
EXTT9=
EXTT10=
EXTT11=
EXTT12=
EXTT13=
EXTT14=
EXTT15=
EXTT16=
EXTT17=
PLAYORDER=
